# xmcd CD database file
#
# Track frame offsets:
#	150
#	21684
#	39371
#	65437
#	84489
#	103359
#	116210
#	134307
#	158334
#	183384
#	201284
#
# Disc length: 3065 seconds
#
# Revision: 0
# Processed by: cddbd v1.5.2PL0 Copyright (c) Steve Scherf et al.
# Submitted via: CDex 1.51
#
DISCID=990bf70b
DTITLE=Honey Island Swamp Band - Demolition Day
DYEAR=2016
DGENRE=Country
TTITLE0=How Do you Feel
TTITLE1=Head High Water Blues
TTITLE2=No Easy Way
TTITLE3=Medicated
TTITLE4=Katie
TTITLE5=Watch and Chain
TTITLE6=Ain´t No Fun
TTITLE7=She Goes Crazy
TTITLE8=Through Another Day
TTITLE9=Say It Isn´t true
TTITLE10=Devil´s Den
EXTD=YEAR: 2016
EXTT0=
EXTT1=
EXTT2=
EXTT3=
EXTT4=
EXTT5=
EXTT6=
EXTT7=
EXTT8=
EXTT9=
EXTT10=
PLAYORDER=
